<mxfile host="app.diagrams.net" modified="2024-04-03T12:27:15.554Z" agent="Mozilla/5.0 (Windows NT 10.0; Win64; x64) AppleWebKit/537.36 (KHTML, like Gecko) Chrome/121.0.0.0 Safari/537.36 OPR/107.0.0.0" etag="38mghKtoxP8-rzoikwC1" version="24.0.7" type="github">
  <diagram name="Page-1" id="DSewbz67-j9m09I7AP3o">
    <mxGraphModel dx="2523" dy="1595" grid="1" gridSize="10" guides="1" tooltips="1" connect="1" arrows="1" fold="1" page="1" pageScale="1" pageWidth="2336" pageHeight="1654" math="0" shadow="0">
      <root>
        <mxCell id="0" />
        <mxCell id="1" parent="0" />
        <mxCell id="OImi5xDaAr73Z1DIqKQl-1" value="&lt;font style=&quot;font-size: 40px;&quot;&gt;Player&lt;/font&gt;" style="rounded=0;whiteSpace=wrap;html=1;" vertex="1" parent="1">
          <mxGeometry x="978" y="200" width="190" height="80" as="geometry" />
        </mxCell>
        <mxCell id="OImi5xDaAr73Z1DIqKQl-2" value="&lt;font style=&quot;font-size: 40px;&quot;&gt;Staff&lt;/font&gt;" style="rounded=0;whiteSpace=wrap;html=1;" vertex="1" parent="1">
          <mxGeometry x="570" y="800" width="180" height="70" as="geometry" />
        </mxCell>
        <mxCell id="OImi5xDaAr73Z1DIqKQl-3" value="&lt;font style=&quot;font-size: 40px;&quot;&gt;Departement&lt;/font&gt;" style="rounded=0;whiteSpace=wrap;html=1;" vertex="1" parent="1">
          <mxGeometry x="484" y="470" width="320" height="80" as="geometry" />
        </mxCell>
        <mxCell id="OImi5xDaAr73Z1DIqKQl-4" value="&lt;font style=&quot;font-size: 40px;&quot;&gt;Store&lt;/font&gt;" style="rounded=0;whiteSpace=wrap;html=1;" vertex="1" parent="1">
          <mxGeometry x="565" y="1090" width="190" height="80" as="geometry" />
        </mxCell>
        <mxCell id="OImi5xDaAr73Z1DIqKQl-5" value="&lt;font style=&quot;font-size: 40px;&quot;&gt;Item&lt;/font&gt;" style="rounded=0;whiteSpace=wrap;html=1;" vertex="1" parent="1">
          <mxGeometry x="555" y="1340" width="190" height="80" as="geometry" />
        </mxCell>
        <mxCell id="OImi5xDaAr73Z1DIqKQl-6" value="&lt;font style=&quot;font-size: 40px;&quot;&gt;Supporter&lt;/font&gt;" style="rounded=0;whiteSpace=wrap;html=1;" vertex="1" parent="1">
          <mxGeometry x="1230" y="1090" width="190" height="80" as="geometry" />
        </mxCell>
        <mxCell id="OImi5xDaAr73Z1DIqKQl-7" value="&lt;font style=&quot;font-size: 40px;&quot;&gt;Match&lt;/font&gt;" style="rounded=0;whiteSpace=wrap;html=1;" vertex="1" parent="1">
          <mxGeometry x="1668" y="200" width="190" height="80" as="geometry" />
        </mxCell>
        <mxCell id="OImi5xDaAr73Z1DIqKQl-8" value="&lt;font style=&quot;font-size: 40px;&quot;&gt;Zone&lt;/font&gt;" style="rounded=0;whiteSpace=wrap;html=1;" vertex="1" parent="1">
          <mxGeometry x="2038" y="1080" width="190" height="80" as="geometry" />
        </mxCell>
        <mxCell id="OImi5xDaAr73Z1DIqKQl-9" value="&lt;font style=&quot;font-size: 36px;&quot;&gt;belong&lt;/font&gt;" style="rhombus;whiteSpace=wrap;html=1;" vertex="1" parent="1">
          <mxGeometry x="454" y="635" width="170" height="80" as="geometry" />
        </mxCell>
        <mxCell id="OImi5xDaAr73Z1DIqKQl-10" value="&lt;font style=&quot;font-size: 40px;&quot;&gt;City&lt;/font&gt;" style="rounded=0;whiteSpace=wrap;html=1;" vertex="1" parent="1">
          <mxGeometry x="90" y="1080" width="190" height="80" as="geometry" />
        </mxCell>
        <mxCell id="OImi5xDaAr73Z1DIqKQl-11" value="&lt;font style=&quot;font-size: 36px;&quot;&gt;play&lt;/font&gt;" style="rhombus;whiteSpace=wrap;html=1;" vertex="1" parent="1">
          <mxGeometry x="1283" y="200" width="270" height="80" as="geometry" />
        </mxCell>
        <mxCell id="OImi5xDaAr73Z1DIqKQl-12" value="" style="endArrow=none;html=1;rounded=0;exitX=1;exitY=0.5;exitDx=0;exitDy=0;entryX=0;entryY=0.5;entryDx=0;entryDy=0;" edge="1" parent="1" source="OImi5xDaAr73Z1DIqKQl-1" target="OImi5xDaAr73Z1DIqKQl-11">
          <mxGeometry width="50" height="50" relative="1" as="geometry">
            <mxPoint x="1360" y="800" as="sourcePoint" />
            <mxPoint x="1410" y="750" as="targetPoint" />
          </mxGeometry>
        </mxCell>
        <mxCell id="OImi5xDaAr73Z1DIqKQl-13" value="" style="endArrow=none;html=1;rounded=0;entryX=0;entryY=0.5;entryDx=0;entryDy=0;exitX=1;exitY=0.5;exitDx=0;exitDy=0;" edge="1" parent="1" source="OImi5xDaAr73Z1DIqKQl-11" target="OImi5xDaAr73Z1DIqKQl-7">
          <mxGeometry width="50" height="50" relative="1" as="geometry">
            <mxPoint x="1310" y="630" as="sourcePoint" />
            <mxPoint x="1360" y="580" as="targetPoint" />
          </mxGeometry>
        </mxCell>
        <mxCell id="OImi5xDaAr73Z1DIqKQl-14" value="&lt;font style=&quot;font-size: 27px;&quot;&gt;&lt;u&gt;idCart&lt;/u&gt;&lt;/font&gt;" style="ellipse;whiteSpace=wrap;html=1;" vertex="1" parent="1">
          <mxGeometry x="990" y="110" width="82" height="50" as="geometry" />
        </mxCell>
        <mxCell id="OImi5xDaAr73Z1DIqKQl-15" value="&lt;span style=&quot;font-size: 27px;&quot;&gt;name&lt;/span&gt;" style="ellipse;whiteSpace=wrap;html=1;" vertex="1" parent="1">
          <mxGeometry x="1100" y="300" width="80" height="60" as="geometry" />
        </mxCell>
        <mxCell id="OImi5xDaAr73Z1DIqKQl-16" value="&lt;span style=&quot;font-size: 27px;&quot;&gt;surname&lt;/span&gt;" style="ellipse;whiteSpace=wrap;html=1;" vertex="1" parent="1">
          <mxGeometry x="952" y="305" width="120" height="50" as="geometry" />
        </mxCell>
        <mxCell id="OImi5xDaAr73Z1DIqKQl-17" value="&lt;span style=&quot;font-size: 27px;&quot;&gt;age&lt;/span&gt;" style="ellipse;whiteSpace=wrap;html=1;" vertex="1" parent="1">
          <mxGeometry x="1110" y="120" width="70" height="40" as="geometry" />
        </mxCell>
        <mxCell id="OImi5xDaAr73Z1DIqKQl-18" value="&lt;span style=&quot;font-size: 27px;&quot;&gt;position&lt;/span&gt;" style="ellipse;whiteSpace=wrap;html=1;" vertex="1" parent="1">
          <mxGeometry x="850" y="130" width="120" height="70" as="geometry" />
        </mxCell>
        <mxCell id="OImi5xDaAr73Z1DIqKQl-19" value="&lt;span style=&quot;font-size: 27px;&quot;&gt;statistcics&lt;/span&gt;" style="ellipse;whiteSpace=wrap;html=1;" vertex="1" parent="1">
          <mxGeometry x="840" y="230" width="120" height="60" as="geometry" />
        </mxCell>
        <mxCell id="OImi5xDaAr73Z1DIqKQl-20" value="&lt;font style=&quot;font-size: 22px;&quot;&gt;goalkeeper&lt;/font&gt;" style="ellipse;whiteSpace=wrap;html=1;dashed=1;" vertex="1" parent="1">
          <mxGeometry x="715" y="50" width="125" height="50" as="geometry" />
        </mxCell>
        <mxCell id="OImi5xDaAr73Z1DIqKQl-21" value="&lt;font style=&quot;font-size: 22px;&quot;&gt;defender&lt;/font&gt;" style="ellipse;whiteSpace=wrap;html=1;dashed=1;" vertex="1" parent="1">
          <mxGeometry x="720" y="110" width="95" height="50" as="geometry" />
        </mxCell>
        <mxCell id="OImi5xDaAr73Z1DIqKQl-22" value="&lt;font style=&quot;font-size: 22px;&quot;&gt;mid&lt;/font&gt;" style="ellipse;whiteSpace=wrap;html=1;dashed=1;" vertex="1" parent="1">
          <mxGeometry x="870" y="40" width="55" height="50" as="geometry" />
        </mxCell>
        <mxCell id="OImi5xDaAr73Z1DIqKQl-23" value="&lt;font style=&quot;font-size: 22px;&quot;&gt;striker&lt;/font&gt;" style="ellipse;whiteSpace=wrap;html=1;dashed=1;" vertex="1" parent="1">
          <mxGeometry x="780" y="160" width="70" height="40" as="geometry" />
        </mxCell>
        <mxCell id="OImi5xDaAr73Z1DIqKQl-24" value="&lt;font style=&quot;font-size: 22px;&quot;&gt;goal received&lt;/font&gt;" style="ellipse;whiteSpace=wrap;html=1;dashed=1;" vertex="1" parent="1">
          <mxGeometry x="690" y="220" width="110" height="60" as="geometry" />
        </mxCell>
        <mxCell id="OImi5xDaAr73Z1DIqKQl-25" value="&lt;font style=&quot;font-size: 22px;&quot;&gt;red cards&lt;/font&gt;" style="ellipse;whiteSpace=wrap;html=1;dashed=1;" vertex="1" parent="1">
          <mxGeometry x="715" y="305" width="125" height="40" as="geometry" />
        </mxCell>
        <mxCell id="OImi5xDaAr73Z1DIqKQl-26" value="&lt;font style=&quot;font-size: 36px;&quot;&gt;work&lt;/font&gt;" style="rhombus;whiteSpace=wrap;html=1;" vertex="1" parent="1">
          <mxGeometry x="586" y="950" width="148" height="60" as="geometry" />
        </mxCell>
        <mxCell id="OImi5xDaAr73Z1DIqKQl-27" value="&lt;font style=&quot;font-size: 36px;&quot;&gt;responsible&lt;/font&gt;" style="rhombus;whiteSpace=wrap;html=1;" vertex="1" parent="1">
          <mxGeometry x="644" y="630" width="230" height="90" as="geometry" />
        </mxCell>
        <mxCell id="OImi5xDaAr73Z1DIqKQl-28" value="" style="endArrow=none;html=1;rounded=0;entryX=0.5;entryY=1;entryDx=0;entryDy=0;exitX=0.5;exitY=0;exitDx=0;exitDy=0;" edge="1" parent="1" source="OImi5xDaAr73Z1DIqKQl-26" target="OImi5xDaAr73Z1DIqKQl-2">
          <mxGeometry width="50" height="50" relative="1" as="geometry">
            <mxPoint x="1434" y="1100" as="sourcePoint" />
            <mxPoint x="1484" y="1050" as="targetPoint" />
          </mxGeometry>
        </mxCell>
        <mxCell id="OImi5xDaAr73Z1DIqKQl-29" value="" style="endArrow=none;html=1;rounded=0;exitX=0.5;exitY=0;exitDx=0;exitDy=0;entryX=0.5;entryY=1;entryDx=0;entryDy=0;" edge="1" parent="1" source="OImi5xDaAr73Z1DIqKQl-4" target="OImi5xDaAr73Z1DIqKQl-26">
          <mxGeometry width="50" height="50" relative="1" as="geometry">
            <mxPoint x="1434" y="1100" as="sourcePoint" />
            <mxPoint x="1484" y="1050" as="targetPoint" />
          </mxGeometry>
        </mxCell>
        <mxCell id="OImi5xDaAr73Z1DIqKQl-30" value="" style="endArrow=none;html=1;rounded=0;exitX=0.5;exitY=0;exitDx=0;exitDy=0;entryX=0.25;entryY=1;entryDx=0;entryDy=0;" edge="1" parent="1" source="OImi5xDaAr73Z1DIqKQl-9" target="OImi5xDaAr73Z1DIqKQl-3">
          <mxGeometry width="50" height="50" relative="1" as="geometry">
            <mxPoint x="1434" y="1100" as="sourcePoint" />
            <mxPoint x="539" y="540" as="targetPoint" />
          </mxGeometry>
        </mxCell>
        <mxCell id="OImi5xDaAr73Z1DIqKQl-31" value="" style="endArrow=none;html=1;rounded=0;entryX=0.75;entryY=1;entryDx=0;entryDy=0;exitX=0.5;exitY=0;exitDx=0;exitDy=0;" edge="1" parent="1" source="OImi5xDaAr73Z1DIqKQl-27" target="OImi5xDaAr73Z1DIqKQl-3">
          <mxGeometry width="50" height="50" relative="1" as="geometry">
            <mxPoint x="1434" y="1100" as="sourcePoint" />
            <mxPoint x="1484" y="1050" as="targetPoint" />
          </mxGeometry>
        </mxCell>
        <mxCell id="OImi5xDaAr73Z1DIqKQl-32" value="" style="endArrow=none;html=1;rounded=0;entryX=0.5;entryY=1;entryDx=0;entryDy=0;exitX=0.25;exitY=0;exitDx=0;exitDy=0;" edge="1" parent="1" source="OImi5xDaAr73Z1DIqKQl-2" target="OImi5xDaAr73Z1DIqKQl-9">
          <mxGeometry width="50" height="50" relative="1" as="geometry">
            <mxPoint x="1434" y="1100" as="sourcePoint" />
            <mxPoint x="1484" y="1050" as="targetPoint" />
          </mxGeometry>
        </mxCell>
        <mxCell id="OImi5xDaAr73Z1DIqKQl-33" value="" style="endArrow=none;html=1;rounded=0;entryX=0.5;entryY=1;entryDx=0;entryDy=0;exitX=0.75;exitY=0;exitDx=0;exitDy=0;" edge="1" parent="1" source="OImi5xDaAr73Z1DIqKQl-2" target="OImi5xDaAr73Z1DIqKQl-27">
          <mxGeometry width="50" height="50" relative="1" as="geometry">
            <mxPoint x="1434" y="1100" as="sourcePoint" />
            <mxPoint x="1484" y="1050" as="targetPoint" />
          </mxGeometry>
        </mxCell>
        <mxCell id="OImi5xDaAr73Z1DIqKQl-34" value="&lt;span style=&quot;font-size: 27px;&quot;&gt;manager&lt;/span&gt;" style="ellipse;whiteSpace=wrap;html=1;" vertex="1" parent="1">
          <mxGeometry x="944" y="650" width="120" height="50" as="geometry" />
        </mxCell>
        <mxCell id="OImi5xDaAr73Z1DIqKQl-35" value="" style="endArrow=none;html=1;rounded=0;exitX=1;exitY=0.5;exitDx=0;exitDy=0;entryX=0;entryY=0.5;entryDx=0;entryDy=0;" edge="1" parent="1" source="OImi5xDaAr73Z1DIqKQl-27" target="OImi5xDaAr73Z1DIqKQl-34">
          <mxGeometry width="50" height="50" relative="1" as="geometry">
            <mxPoint x="1434" y="1100" as="sourcePoint" />
            <mxPoint x="1484" y="1050" as="targetPoint" />
          </mxGeometry>
        </mxCell>
        <mxCell id="OImi5xDaAr73Z1DIqKQl-36" value="&lt;font style=&quot;font-size: 27px;&quot;&gt;&lt;u&gt;idCart&lt;/u&gt;&lt;/font&gt;" style="ellipse;whiteSpace=wrap;html=1;" vertex="1" parent="1">
          <mxGeometry x="784" y="760" width="82" height="50" as="geometry" />
        </mxCell>
        <mxCell id="OImi5xDaAr73Z1DIqKQl-37" value="&lt;span style=&quot;font-size: 27px;&quot;&gt;name&lt;/span&gt;" style="ellipse;whiteSpace=wrap;html=1;" vertex="1" parent="1">
          <mxGeometry x="454" y="770" width="80" height="60" as="geometry" />
        </mxCell>
        <mxCell id="OImi5xDaAr73Z1DIqKQl-38" value="&lt;span style=&quot;font-size: 27px;&quot;&gt;surname&lt;/span&gt;" style="ellipse;whiteSpace=wrap;html=1;" vertex="1" parent="1">
          <mxGeometry x="450" y="870" width="120" height="50" as="geometry" />
        </mxCell>
        <mxCell id="OImi5xDaAr73Z1DIqKQl-42" value="&lt;font style=&quot;font-size: 27px;&quot;&gt;&lt;u&gt;id&lt;/u&gt;&lt;/font&gt;" style="ellipse;whiteSpace=wrap;html=1;" vertex="1" parent="1">
          <mxGeometry x="368" y="450" width="82" height="50" as="geometry" />
        </mxCell>
        <mxCell id="OImi5xDaAr73Z1DIqKQl-43" value="&lt;span style=&quot;font-size: 27px;&quot;&gt;name&lt;/span&gt;" style="ellipse;whiteSpace=wrap;html=1;" vertex="1" parent="1">
          <mxGeometry x="864" y="460" width="80" height="60" as="geometry" />
        </mxCell>
        <mxCell id="OImi5xDaAr73Z1DIqKQl-44" value="&lt;font style=&quot;font-size: 27px;&quot;&gt;&lt;u&gt;idStore&lt;/u&gt;&lt;/font&gt;" style="ellipse;whiteSpace=wrap;html=1;" vertex="1" parent="1">
          <mxGeometry x="498" y="1025" width="112" height="50" as="geometry" />
        </mxCell>
        <mxCell id="OImi5xDaAr73Z1DIqKQl-45" value="&lt;span style=&quot;font-size: 27px;&quot;&gt;name&lt;/span&gt;" style="ellipse;whiteSpace=wrap;html=1;" vertex="1" parent="1">
          <mxGeometry x="734" y="1020" width="90" height="60" as="geometry" />
        </mxCell>
        <mxCell id="OImi5xDaAr73Z1DIqKQl-46" value="&lt;span style=&quot;font-size: 27px;&quot;&gt;country&lt;/span&gt;" style="ellipse;whiteSpace=wrap;html=1;" vertex="1" parent="1">
          <mxGeometry x="454" y="1150" width="104" height="70" as="geometry" />
        </mxCell>
        <mxCell id="OImi5xDaAr73Z1DIqKQl-47" value="&lt;font style=&quot;font-size: 36px;&quot;&gt;sell&lt;/font&gt;" style="rhombus;whiteSpace=wrap;html=1;" vertex="1" parent="1">
          <mxGeometry x="576" y="1230" width="148" height="60" as="geometry" />
        </mxCell>
        <mxCell id="OImi5xDaAr73Z1DIqKQl-48" value="&lt;span style=&quot;font-size: 27px;&quot;&gt;&lt;u&gt;itCode&lt;/u&gt;&lt;/span&gt;" style="ellipse;whiteSpace=wrap;html=1;" vertex="1" parent="1">
          <mxGeometry x="402" y="1442.5" width="100" height="55" as="geometry" />
        </mxCell>
        <mxCell id="OImi5xDaAr73Z1DIqKQl-49" value="&lt;span style=&quot;font-size: 27px;&quot;&gt;name&lt;/span&gt;" style="ellipse;whiteSpace=wrap;html=1;" vertex="1" parent="1">
          <mxGeometry x="410" y="1370" width="80" height="60" as="geometry" />
        </mxCell>
        <mxCell id="OImi5xDaAr73Z1DIqKQl-50" value="&lt;span style=&quot;font-size: 27px;&quot;&gt;price&lt;/span&gt;" style="ellipse;whiteSpace=wrap;html=1;" vertex="1" parent="1">
          <mxGeometry x="430" y="1300" width="80" height="60" as="geometry" />
        </mxCell>
        <mxCell id="OImi5xDaAr73Z1DIqKQl-51" value="&lt;font style=&quot;font-size: 36px;&quot;&gt;buy&lt;/font&gt;" style="rhombus;whiteSpace=wrap;html=1;" vertex="1" parent="1">
          <mxGeometry x="944" y="1100" width="148" height="60" as="geometry" />
        </mxCell>
        <mxCell id="OImi5xDaAr73Z1DIqKQl-52" value="&lt;font style=&quot;font-size: 36px;&quot;&gt;choose&lt;/font&gt;" style="rhombus;whiteSpace=wrap;html=1;" vertex="1" parent="1">
          <mxGeometry x="1600" y="1095" width="180" height="70" as="geometry" />
        </mxCell>
      </root>
    </mxGraphModel>
  </diagram>
</mxfile>
